<svg xmlns="http://www.w3.org/2000/svg" width="304" height="286" fill="none"><path fill="#fff" d="M127.406 51.615h81.669V0h-81.669C80.857 0 43.122 37.735 43.122 84.283s37.735 84.283 84.284 84.283h37.559v-51.615h-37.559c-18.042 0-32.668-14.626-32.668-32.668s14.626-32.668 32.668-32.668Z"/><path fill="#fff" fill-rule="evenodd" d="M186.208 233.902v51.615H84.284C37.736 285.517 0 247.782 0 201.234s37.736-84.283 84.284-84.283h69.909v51.615H84.284c-18.042 0-32.668 14.626-32.668 32.668s14.626 32.668 32.668 32.668h101.924Z" clip-rule="evenodd"/><path fill="#fff" d="M303.999 0H157.32v51.615h95.064c28.506 0 51.615-23.109 51.615-51.615Zm-59.788 116.951h-85.59v51.615h33.974c28.507 0 51.616-23.109 51.616-51.615Zm32.161 116.952H150.6v51.616h74.156c28.507 0 51.616-23.109 51.616-51.616Z"/></svg>