<svg xmlns="http://www.w3.org/2000/svg" width="800" height="800" fill="none" viewBox="0 0 24 24"><g stroke="#fff" stroke-linecap="round" stroke-linejoin="round" stroke-width="1.5"><path d="M11.28 22H7.01a4 4 0 0 1-4-4v-3.11A12.89 12.89 0 0 1 15.9 2h1.11a4 4 0 0 1 4 4v5.44"/><path d="M3 15.06c0-5.16 5.5-1 8.73-4.24C14.96 7.58 10.83 2 15.98 2"/><path d="M3 15.06c0-5.16 5.5-1 8.73-4.24C14.96 7.58 10.83 2 15.98 2m3.62 14a2.427 2.427 0 0 0-1.6.604 2.421 2.421 0 0 0-1.228-.574 2.457 2.457 0 0 0-1.352.17 2.373 2.373 0 0 0-1.036.86c-.252.379-.386.82-.384 1.27 0 2.784 4 4.67 4 4.67s4-1.886 4-4.67c0-.618-.253-1.21-.703-1.647A2.437 2.437 0 0 0 19.6 16Z"/></g></svg>